<svg width="188" height="54" viewBox="0 0 188 54" fill="none" xmlns="http://www.w3.org/2000/svg">
<g filter="url(#filter0_ddiii_6293_32034)">
<g clip-path="url(#clip0_6293_32034)">
<rect x="3" width="48" height="48" rx="12" fill="#0A0D12" style="fill:#0A0D12;fill:color(display-p3 0.0392 0.0497 0.0706);fill-opacity:1;"/>
<rect width="48" height="48" transform="translate(3)" fill="url(#paint0_linear_6293_32034)" style=""/>
<g filter="url(#filter1_d_6293_32034)">
<path fill-rule="evenodd" clip-rule="evenodd" d="M22.6719 9.74951C20.2604 9.74951 18.032 11.0361 16.8263 13.1245L12.4961 20.6245C11.2904 22.713 11.2904 25.2861 12.4961 27.3745L16.8263 34.8745C18.032 36.963 20.2604 38.2495 22.6719 38.2495H31.3322C33.7437 38.2495 35.9721 36.963 37.1778 34.8745L41.508 27.3745C42.7137 25.2861 42.7137 22.713 41.508 20.6245L37.1778 13.1245C35.9721 11.0361 33.7437 9.74951 31.3322 9.74951H22.6719ZM31.3322 14.2495L25.9195 14.2495C25.0535 14.2495 24.5124 15.1869 24.946 15.9366C26.284 18.2494 27.6252 20.5605 28.9612 22.8745C29.3631 23.5707 29.3631 24.4284 28.9612 25.1245C27.6252 27.4385 26.284 29.7496 24.946 32.0625C24.5124 32.8121 25.0535 33.7495 25.9195 33.7495H31.3322C32.136 33.7495 32.8788 33.3207 33.2807 32.6245L37.6109 25.1245C38.0128 24.4284 38.0128 23.5707 37.6109 22.8745L33.2807 15.3745C32.8788 14.6784 32.136 14.2495 31.3322 14.2495Z" fill="url(#paint1_linear_6293_32034)" style=""/>
</g>
</g>
<rect x="4" y="1" width="46" height="46" rx="11" stroke="url(#paint2_linear_6293_32034)" style="" stroke-width="2"/>
</g>
<path d="M76.4079 14.0665H80.5649V26.8278C80.5649 28.2619 80.2218 29.52 79.5356 30.6021C78.8581 31.6754 77.908 32.5112 76.6851 33.1095C75.4622 33.7077 74.0369 34.0069 72.4093 34.0069C70.7817 34.0069 69.3565 33.7077 68.1336 33.1095C66.9106 32.5112 65.9605 31.6754 65.283 30.6021C64.6056 29.52 64.2669 28.2619 64.2669 26.8278V14.0665H68.4107V26.4847C68.4107 27.2325 68.5778 27.9012 68.9122 28.4906C69.2465 29.0713 69.7128 29.5288 70.311 29.8631C70.9093 30.1886 71.6087 30.3514 72.4093 30.3514C73.2187 30.3514 73.9225 30.1886 74.5208 29.8631C75.1191 29.5288 75.5809 29.0713 75.9065 28.4906C76.2408 27.9012 76.4079 27.2325 76.4079 26.4847V14.0665ZM95.2925 23.1855L91.5579 23.4098C91.4611 22.9436 91.2015 22.5433 90.7792 22.2089C90.3569 21.8658 89.7895 21.6943 89.0769 21.6943C88.4434 21.6943 87.9111 21.8262 87.48 22.0902C87.0577 22.3541 86.8466 22.706 86.8466 23.1459C86.8466 23.4978 86.983 23.8014 87.2557 24.0565C87.5372 24.3028 88.0167 24.4964 88.6942 24.6371L91.3731 25.165C92.8072 25.4553 93.8761 25.926 94.5799 26.5771C95.2837 27.2281 95.6357 28.0859 95.6357 29.1504C95.6357 30.127 95.3541 30.9804 94.7911 31.7106C94.228 32.4321 93.4538 32.9995 92.4684 33.413C91.4831 33.8177 90.3525 34.0201 89.0769 34.0201C87.1237 34.0201 85.5665 33.611 84.4052 32.7928C83.2527 31.9746 82.5796 30.866 82.3861 29.4672L86.3847 29.256C86.5167 29.8543 86.8158 30.3074 87.2821 30.6153C87.7484 30.9232 88.3466 31.0772 89.0769 31.0772C89.7895 31.0772 90.3657 30.9364 90.8056 30.6549C91.2543 30.3734 91.4787 30.017 91.4787 29.5859C91.4787 28.8557 90.8452 28.363 89.5783 28.1079L87.0314 27.58C85.5973 27.2897 84.5284 26.7926 83.8245 26.0888C83.1207 25.385 82.7688 24.4832 82.7688 23.3835C82.7688 22.4333 83.0283 21.6151 83.5474 20.9288C84.0665 20.2426 84.7923 19.7147 85.7249 19.3452C86.6662 18.9757 87.766 18.791 89.0241 18.791C90.8892 18.791 92.3541 19.1869 93.4186 19.9787C94.4919 20.7617 95.1166 21.8306 95.2925 23.1855ZM104.068 34.0201C102.555 34.0201 101.249 33.7121 100.149 33.0963C99.0492 32.4804 98.2046 31.6051 97.6152 30.4701C97.0345 29.3264 96.7442 27.9759 96.7442 26.4187C96.7442 24.9055 97.0345 23.577 97.6152 22.4333C98.2046 21.2896 99.0316 20.3966 100.096 19.7543C101.17 19.1121 102.428 18.791 103.87 18.791C104.847 18.791 105.758 18.9493 106.602 19.2661C107.447 19.574 108.186 20.0403 108.819 20.6649C109.453 21.2808 109.945 22.0594 110.297 23.0007C110.649 23.9333 110.825 25.0287 110.825 26.2867V27.3953H98.3674V24.8747H108.846L106.945 25.5345C106.945 24.7867 106.831 24.1357 106.602 23.5814C106.373 23.0271 106.03 22.6004 105.573 22.3013C105.124 21.9934 104.565 21.8394 103.897 21.8394C103.228 21.8394 102.661 21.9934 102.194 22.3013C101.737 22.6092 101.385 23.0271 101.139 23.555C100.892 24.0829 100.769 24.6899 100.769 25.3762V27.1577C100.769 27.9583 100.91 28.6446 101.192 29.2164C101.473 29.7795 101.865 30.215 102.366 30.5229C102.876 30.822 103.461 30.9716 104.121 30.9716C104.579 30.9716 104.992 30.9056 105.362 30.7737C105.731 30.6417 106.048 30.4481 106.312 30.193C106.585 29.9379 106.787 29.6299 106.919 29.2692L110.693 29.52C110.508 30.4261 110.121 31.2179 109.532 31.8954C108.951 32.564 108.199 33.0875 107.275 33.4658C106.351 33.8353 105.283 34.0201 104.068 34.0201ZM112.58 33.7297V18.9757H116.526V21.5623H116.685C116.957 20.6473 117.41 19.9567 118.044 19.4904C118.677 19.0153 119.403 18.7778 120.221 18.7778C120.432 18.7778 120.652 18.791 120.881 18.8174C121.119 18.835 121.33 18.8702 121.515 18.9229V22.5389C121.321 22.4773 121.053 22.4289 120.71 22.3937C120.375 22.3497 120.063 22.3277 119.773 22.3277C119.183 22.3277 118.651 22.4597 118.176 22.7236C117.701 22.9788 117.327 23.3395 117.054 23.8057C116.79 24.2632 116.658 24.7911 116.658 25.3894V33.7297H112.58ZM139.251 14.0665V33.7297H135.662L127.123 21.3643H126.952V33.7297H122.808V14.0665H126.45L134.936 26.4319H135.107V14.0665H139.251ZM148.357 34.0201C146.87 34.0201 145.581 33.7033 144.49 33.0699C143.408 32.4277 142.572 31.5391 141.983 30.4041C141.402 29.2604 141.112 27.9319 141.112 26.4187C141.112 24.8879 141.402 23.555 141.983 22.4201C142.572 21.2764 143.408 20.3878 144.49 19.7543C145.581 19.1121 146.87 18.791 148.357 18.791C149.852 18.791 151.141 19.1121 152.223 19.7543C153.314 20.3878 154.15 21.2764 154.731 22.4201C155.32 23.555 155.615 24.8879 155.615 26.4187C155.615 27.9319 155.32 29.2604 154.731 30.4041C154.15 31.5391 153.314 32.4277 152.223 33.0699C151.141 33.7033 149.852 34.0201 148.357 34.0201ZM148.383 30.8264C149.061 30.8264 149.628 30.6373 150.086 30.259C150.543 29.8719 150.886 29.344 151.115 28.6754C151.353 28.0067 151.471 27.2457 151.471 26.3923C151.471 25.5301 151.353 24.7691 151.115 24.1093C150.886 23.4494 150.543 22.9304 150.086 22.5521C149.628 22.1737 149.061 21.9846 148.383 21.9846C147.697 21.9846 147.121 22.1737 146.654 22.5521C146.197 22.9304 145.849 23.4494 145.612 24.1093C145.383 24.7691 145.269 25.5301 145.269 26.3923C145.269 27.2457 145.383 28.0067 145.612 28.6754C145.849 29.344 146.197 29.8719 146.654 30.259C147.121 30.6373 147.697 30.8264 148.383 30.8264ZM162.807 33.9673C161.681 33.9673 160.665 33.6769 159.759 33.0963C158.853 32.5156 158.136 31.6622 157.608 30.5361C157.08 29.4012 156.816 28.0155 156.816 26.3791C156.816 24.6899 157.089 23.2823 157.634 22.1562C158.18 21.03 158.905 20.1898 159.812 19.6356C160.718 19.0725 161.708 18.791 162.781 18.791C163.608 18.791 164.299 18.9317 164.853 19.2133C165.407 19.486 165.856 19.8291 166.199 20.2426C166.542 20.6561 166.802 21.0652 166.978 21.4699H167.096V14.0665H171.187V33.7297H167.162V31.3675H166.978C166.793 31.7722 166.524 32.1769 166.173 32.5816C165.821 32.9775 165.368 33.3074 164.813 33.5714C164.268 33.8353 163.599 33.9673 162.807 33.9673ZM164.087 30.7209C164.747 30.7209 165.306 30.5405 165.763 30.1798C166.23 29.8103 166.582 29.3 166.819 28.649C167.065 27.9979 167.189 27.2369 167.189 26.3659C167.189 25.4861 167.07 24.7251 166.832 24.0829C166.595 23.4318 166.243 22.9304 165.777 22.5784C165.31 22.2177 164.747 22.0374 164.087 22.0374C163.419 22.0374 162.856 22.2221 162.398 22.5916C161.941 22.9612 161.593 23.4714 161.356 24.1225C161.118 24.7647 160.999 25.5125 160.999 26.3659C160.999 27.2193 161.118 27.9759 161.356 28.6358C161.593 29.2868 161.941 29.7971 162.398 30.1666C162.865 30.5361 163.428 30.7209 164.087 30.7209ZM180.293 34.0201C178.78 34.0201 177.473 33.7121 176.374 33.0963C175.274 32.4804 174.429 31.6051 173.84 30.4701C173.259 29.3264 172.969 27.9759 172.969 26.4187C172.969 24.9055 173.259 23.577 173.84 22.4333C174.429 21.2896 175.256 20.3966 176.321 19.7543C177.394 19.1121 178.652 18.791 180.095 18.791C181.072 18.791 181.982 18.9493 182.827 19.2661C183.671 19.574 184.41 20.0403 185.044 20.6649C185.677 21.2808 186.17 22.0594 186.522 23.0007C186.874 23.9333 187.05 25.0287 187.05 26.2867V27.3953H174.592V24.8747H185.07L183.17 25.5345C183.17 24.7867 183.056 24.1357 182.827 23.5814C182.598 23.0271 182.255 22.6004 181.798 22.3013C181.349 21.9934 180.79 21.8394 180.122 21.8394C179.453 21.8394 178.885 21.9934 178.419 22.3013C177.962 22.6092 177.61 23.0271 177.363 23.555C177.117 24.0829 176.994 24.6899 176.994 25.3762V27.1577C176.994 27.9583 177.135 28.6446 177.416 29.2164C177.698 29.7795 178.089 30.215 178.591 30.5229C179.101 30.822 179.686 30.9716 180.346 30.9716C180.803 30.9716 181.217 30.9056 181.586 30.7737C181.956 30.6417 182.273 30.4481 182.537 30.193C182.809 29.9379 183.012 29.6299 183.144 29.2692L186.918 29.52C186.733 30.4261 186.346 31.2179 185.757 31.8954C185.176 32.564 184.424 33.0875 183.5 33.4658C182.576 33.8353 181.507 34.0201 180.293 34.0201Z" fill="#0A0D12" style="fill:#0A0D12;fill:color(display-p3 0.0392 0.0510 0.0706);fill-opacity:1;"/>
<defs>
<filter id="filter0_ddiii_6293_32034" x="0" y="-3" width="54" height="57" filterUnits="userSpaceOnUse" color-interpolation-filters="sRGB">
<feFlood flood-opacity="0" result="BackgroundImageFix"/>
<feColorMatrix in="SourceAlpha" type="matrix" values="0 0 0 0 0 0 0 0 0 0 0 0 0 0 0 0 0 0 127 0" result="hardAlpha"/>
<feOffset dy="1"/>
<feGaussianBlur stdDeviation="0.5"/>
<feComposite in2="hardAlpha" operator="out"/>
<feColorMatrix type="matrix" values="0 0 0 0 0.162923 0 0 0 0 0.162923 0 0 0 0 0.162923 0 0 0 0.08 0"/>
<feBlend mode="normal" in2="BackgroundImageFix" result="effect1_dropShadow_6293_32034"/>
<feColorMatrix in="SourceAlpha" type="matrix" values="0 0 0 0 0 0 0 0 0 0 0 0 0 0 0 0 0 0 127 0" result="hardAlpha"/>
<feMorphology radius="1" operator="erode" in="SourceAlpha" result="effect2_dropShadow_6293_32034"/>
<feOffset dy="3"/>
<feGaussianBlur stdDeviation="2"/>
<feComposite in2="hardAlpha" operator="out"/>
<feColorMatrix type="matrix" values="0 0 0 0 0.164706 0 0 0 0 0.164706 0 0 0 0 0.164706 0 0 0 0.14 0"/>
<feBlend mode="normal" in2="effect1_dropShadow_6293_32034" result="effect2_dropShadow_6293_32034"/>
<feBlend mode="normal" in="SourceGraphic" in2="effect2_dropShadow_6293_32034" result="shape"/>
<feColorMatrix in="SourceAlpha" type="matrix" values="0 0 0 0 0 0 0 0 0 0 0 0 0 0 0 0 0 0 127 0" result="hardAlpha"/>
<feOffset dy="-3"/>
<feGaussianBlur stdDeviation="1.5"/>
<feComposite in2="hardAlpha" operator="arithmetic" k2="-1" k3="1"/>
<feColorMatrix type="matrix" values="0 0 0 0 0 0 0 0 0 0 0 0 0 0 0 0 0 0 0.1 0"/>
<feBlend mode="normal" in2="shape" result="effect3_innerShadow_6293_32034"/>
<feColorMatrix in="SourceAlpha" type="matrix" values="0 0 0 0 0 0 0 0 0 0 0 0 0 0 0 0 0 0 127 0" result="hardAlpha"/>
<feOffset dy="3"/>
<feGaussianBlur stdDeviation="1.5"/>
<feComposite in2="hardAlpha" operator="arithmetic" k2="-1" k3="1"/>
<feColorMatrix type="matrix" values="0 0 0 0 1 0 0 0 0 1 0 0 0 0 1 0 0 0 0.1 0"/>
<feBlend mode="normal" in2="effect3_innerShadow_6293_32034" result="effect4_innerShadow_6293_32034"/>
<feColorMatrix in="SourceAlpha" type="matrix" values="0 0 0 0 0 0 0 0 0 0 0 0 0 0 0 0 0 0 127 0" result="hardAlpha"/>
<feMorphology radius="1" operator="erode" in="SourceAlpha" result="effect5_innerShadow_6293_32034"/>
<feOffset/>
<feComposite in2="hardAlpha" operator="arithmetic" k2="-1" k3="1"/>
<feColorMatrix type="matrix" values="0 0 0 0 0.0627451 0 0 0 0 0.0941176 0 0 0 0 0.156863 0 0 0 0.24 0"/>
<feBlend mode="normal" in2="effect4_innerShadow_6293_32034" result="effect5_innerShadow_6293_32034"/>
</filter>
<filter id="filter1_d_6293_32034" x="8.25" y="5.25" width="37.5" height="42" filterUnits="userSpaceOnUse" color-interpolation-filters="sRGB">
<feFlood flood-opacity="0" result="BackgroundImageFix"/>
<feColorMatrix in="SourceAlpha" type="matrix" values="0 0 0 0 0 0 0 0 0 0 0 0 0 0 0 0 0 0 127 0" result="hardAlpha"/>
<feMorphology radius="1.5" operator="erode" in="SourceAlpha" result="effect1_dropShadow_6293_32034"/>
<feOffset dy="2.25"/>
<feGaussianBlur stdDeviation="2.25"/>
<feComposite in2="hardAlpha" operator="out"/>
<feColorMatrix type="matrix" values="0 0 0 0 0.141176 0 0 0 0 0.141176 0 0 0 0 0.141176 0 0 0 0.1 0"/>
<feBlend mode="normal" in2="BackgroundImageFix" result="effect1_dropShadow_6293_32034"/>
<feBlend mode="normal" in="SourceGraphic" in2="effect1_dropShadow_6293_32034" result="shape"/>
</filter>
<linearGradient id="paint0_linear_6293_32034" x1="24" y1="5.96047e-07" x2="26" y2="48" gradientUnits="userSpaceOnUse">
<stop stop-color="white" stop-opacity="0" style="stop-color:none;stop-opacity:0;"/>
<stop offset="1" stop-color="white" stop-opacity="0.12" style="stop-color:white;stop-opacity:0.12;"/>
</linearGradient>
<linearGradient id="paint1_linear_6293_32034" x1="27.002" y1="9.74951" x2="27.002" y2="38.2495" gradientUnits="userSpaceOnUse">
<stop stop-color="white" stop-opacity="0.8" style="stop-color:white;stop-opacity:0.8;"/>
<stop offset="1" stop-color="white" stop-opacity="0.5" style="stop-color:white;stop-opacity:0.5;"/>
</linearGradient>
<linearGradient id="paint2_linear_6293_32034" x1="27" y1="0" x2="27" y2="48" gradientUnits="userSpaceOnUse">
<stop stop-color="white" stop-opacity="0.12" style="stop-color:white;stop-opacity:0.12;"/>
<stop offset="1" stop-color="white" stop-opacity="0" style="stop-color:none;stop-opacity:0;"/>
</linearGradient>
<clipPath id="clip0_6293_32034">
<rect x="3" width="48" height="48" rx="12" fill="white" style="fill:white;fill-opacity:1;"/>
</clipPath>
</defs>
</svg>
